<?xml version="1.0" encoding="UTF-8" standalone="no"?><!DOCTYPE svg PUBLIC "-//W3C//DTD SVG 1.1//EN" "http://www.w3.org/Graphics/SVG/1.1/DTD/svg11.dtd"><svg width="100%" height="100%" viewBox="0 0 241 194" version="1.1" xmlns="http://www.w3.org/2000/svg" xmlns:xlink="http://www.w3.org/1999/xlink" xml:space="preserve" xmlns:serif="http://www.serif.com/" style="fill-rule:evenodd;clip-rule:evenodd;stroke-linejoin:round;stroke-miterlimit:2;"><g><path d="M0.008,57.311c0,40.165 2.49,66.005 15.567,89.979c14.942,27.714 42.031,38.299 72.86,38.299l9.648,0c40.477,0 60.096,-19.618 70.994,-36.737c5.293,-8.72 9.961,-18.369 12.451,-30.517l1.866,-7.784l11.21,0c24.911,0 46.396,-20.234 46.396,-46.082l0,-4.668c0,-28.955 -18.056,-44.217 -49.51,-47.948c-17.744,-1.553 -28.331,-2.179 -78.778,-2.179c-33.935,0 -58.222,0.312 -76.591,3.116c-25.84,3.739 -36.121,18.369 -36.121,44.521l0.008,-0Zm37.368,24.431l-0.007,0c-0,-17.803 12.796,-33.653 32.264,-33.653c11.41,0 19.47,5.836 24.757,13.904c5.842,-8.06 13.632,-13.904 25.033,-13.904c19.192,0 32.537,15.85 32.537,33.653c-0,16.416 -9.176,30.6 -21.135,41.722c-7.511,7.509 -19.742,15.299 -28.088,20.305c-2.233,1.389 -5.008,2.226 -8.347,2.226c-2.783,-0 -5.287,-0.837 -7.79,-2.226c-8.34,-5.006 -20.578,-12.796 -28.367,-20.305c-11.68,-11.131 -20.857,-25.314 -20.857,-41.722Zm154.003,-44.66c15.761,0.073 24.413,9.402 24.413,24.285c-0,14.942 -8.72,23.975 -24.599,23.975c-4.981,-0 -7.784,-2.802 -7.784,-6.543l0,-35.176c0,-3.739 2.803,-6.541 7.784,-6.541l0.186,0Z" style="fill-rule:nonzero;"/></g></svg>