<?xml version="1.0" encoding="UTF-8" standalone="no"?><!DOCTYPE svg PUBLIC "-//W3C//DTD SVG 1.1//EN" "http://www.w3.org/Graphics/SVG/1.1/DTD/svg11.dtd"><svg width="100%" height="100%" viewBox="0 0 1080 1080" version="1.1" xmlns="http://www.w3.org/2000/svg" xmlns:xlink="http://www.w3.org/1999/xlink" xml:space="preserve" xmlns:serif="http://www.serif.com/" style="fill-rule:evenodd;clip-rule:evenodd;stroke-linejoin:round;stroke-miterlimit:2;"><path d="M1080,54c0,-29.803 -24.197,-54 -54,-54l-972,0c-29.803,0 -54,24.197 -54,54l0,972c0,29.803 24.197,54 54,54l972,0c29.803,0 54,-24.197 54,-54l0,-972Zm-182.515,329.928c-0.137,-99.85 -78.007,-181.685 -169.37,-211.213c-113.456,-36.667 -263.091,-31.352 -371.427,19.695c-131.306,61.88 -172.554,197.427 -174.091,332.611c-1.261,111.146 9.846,403.882 175.186,405.968c122.852,1.556 141.145,-156.531 197.988,-232.667c40.443,-54.169 92.516,-69.468 156.617,-85.311c110.171,-27.232 185.257,-114.064 185.097,-229.083Z"/></svg>