<?xml version="1.0" encoding="UTF-8" standalone="no"?><!DOCTYPE svg PUBLIC "-//W3C//DTD SVG 1.1//EN" "http://www.w3.org/Graphics/SVG/1.1/DTD/svg11.dtd"><svg width="100%" height="100%" viewBox="0 0 150 134" version="1.1" xmlns="http://www.w3.org/2000/svg" xmlns:xlink="http://www.w3.org/1999/xlink" xml:space="preserve" xmlns:serif="http://www.serif.com/" style="fill-rule:evenodd;clip-rule:evenodd;stroke-linejoin:round;stroke-miterlimit:2;"><path d="M96.706,109.344c-10.961,0.282 -13.079,-7.537 -13.174,-13.214l0.001,-39.38l25.54,0l-0.001,-22.825l-25.437,0l-0.001,-33.925l-20.054,-0c-0.329,-0 -0.904,0.284 -0.985,1.003c-1.176,10.446 -6.174,28.785 -26.937,36.111l0.001,19.636l15.804,0l0,41.458c0,14.991 9.349,36.284 39.165,35.783c10.062,-0.166 21.24,-4.292 23.714,-7.848l-6.585,-19.109c-2.549,1.178 -7.413,2.212 -11.051,2.305l-0.002,0.005l0.002,0Z" style="fill-rule:nonzero;"/></svg>