<?xml version="1.0" encoding="UTF-8" standalone="no"?><!DOCTYPE svg PUBLIC "-//W3C//DTD SVG 1.1//EN" "http://www.w3.org/Graphics/SVG/1.1/DTD/svg11.dtd"><svg width="100%" height="100%" viewBox="0 0 800 600" version="1.1" xmlns="http://www.w3.org/2000/svg" xmlns:xlink="http://www.w3.org/1999/xlink" xml:space="preserve" xmlns:serif="http://www.serif.com/" style="fill-rule:evenodd;clip-rule:evenodd;stroke-linejoin:round;stroke-miterlimit:2;"><g id="logo"><g><path d="M39.433,343.546l-0.745,0.982c-3.251,4.306 -2.453,10.423 1.794,13.751c4.246,3.328 10.376,2.642 13.782,-1.543l0.218,-0.287l0.004,0.003c17.807,-23.591 38.047,-49.013 57.596,-62.648c9.642,-6.724 18.787,-10.837 27.214,-7.71c-0.278,1.38 -0.848,3.925 -1.594,5.805c-2.084,5.257 -5.3,11.173 -8.431,17.122c-5.672,10.776 -10.812,21.755 -11.401,30.014c-0.66,9.248 2.681,16.387 11.732,20.474c5.784,2.612 13.426,1.898 22.088,-4.242c11.892,-8.428 28.396,-28.998 48.317,-54.035c3.4,-4.274 2.691,-10.506 -1.583,-13.906c-4.274,-3.401 -11.604,-0.894 -15.005,3.38c-15.991,20.098 -28.349,35.486 -38.897,44.942c-2.265,2.031 -5.331,3.935 -6.974,4.897c0.039,-0.154 0.081,-0.314 0.098,-0.471c0.167,-1.544 0.633,-3.217 1.245,-4.992c2.793,-8.099 8.437,-17.588 12.83,-26.32c4.515,-8.978 7.615,-17.453 7.557,-23.686c-0.068,-7.43 -3.184,-13.073 -10.352,-16.4c-14.266,-6.622 -30.437,-3.077 -46.885,8.019c5.981,-12.148 11.125,-24.159 14.364,-34.803c3.284,-10.787 4.613,-20.38 3.619,-27.73c-1.43,-10.569 -6.908,-17.667 -16.943,-20.464c-14.165,-3.948 -27.487,1.838 -38.116,11.061c-13.568,11.774 -22.41,28.745 -22.41,28.745c-2.518,4.847 -0.627,10.827 4.22,13.345c4.847,2.518 10.826,0.627 13.344,-4.22c0,-0 7.011,-13.543 17.818,-22.921c5.627,-4.882 12.331,-9.034 19.829,-6.944c2.704,0.754 2.804,3.515 2.805,6.691c0.001,4.751 -1.197,10.42 -3.101,16.674c-12.1,39.755 -52.446,99.732 -58.037,107.417Z" style="fill:#cc6c6d;"/><path d="M264.49,287.419c-0.133,-1.697 -0.345,-3.311 -0.627,-4.825c-1.489,-7.99 -5.152,-13.587 -8.936,-16.226c-5.929,-4.135 -12.443,-5.417 -18.606,-4.627c-0.245,-0.003 -0.492,0.006 -0.74,0.025c-18.363,1.378 -34.698,9.714 -51.732,28.469c-9.788,10.776 -16.57,27.674 -16.554,41.407c0.013,11.812 4.776,21.414 14.218,26.121c9.336,4.655 20.901,4.298 32.311,0.421c14.959,-5.084 29.565,-16.091 36.863,-25.297c5.506,-6.945 9.166,-14.761 11.351,-22.463c16.131,-6.481 33.744,-18.927 46.598,-32.228c3.795,-3.928 3.688,-10.199 -0.24,-13.994c-3.928,-3.796 -10.198,-3.688 -13.994,0.24c-8.412,8.705 -19.171,17.089 -29.912,22.977Zm-53.555,4.517c-4.116,3.121 -8.228,6.975 -12.434,11.606c-6.653,7.325 -11.424,18.744 -11.413,28.078c0.004,3.589 0.387,6.999 3.256,8.43c4.947,2.466 11.066,1.448 17.112,-0.607c11.217,-3.811 22.248,-11.949 27.721,-18.852c1.369,-1.727 2.574,-3.531 3.626,-5.383c-8.343,-0.267 -15.451,-3.137 -20.562,-8.677c-4.36,-4.726 -6.641,-9.72 -7.306,-14.595Zm27.929,-10.739c-0.579,0.157 -1.182,0.26 -1.802,0.306l-0.31,0.028c-4.846,1.39 -8.348,6.827 -3.964,11.579c1.328,1.439 3.159,2.056 5.206,2.287c2.111,0.238 4.401,0.08 6.82,-0.365c0.115,-1.723 0.123,-3.384 0.037,-4.953c-0.166,-3.035 -1.452,-6.946 -1.743,-7.794c-1.352,-0.803 -2.814,-1.131 -4.244,-1.088Z" style="fill:#cc6c6d;"/><path d="M280.414,276.813c-2.247,1.758 -4.401,3.343 -6.434,4.73c-4.512,3.078 -5.676,9.241 -2.598,13.752c1.158,1.698 2.753,2.921 4.532,3.623c-1.735,11.437 -2.426,22.717 -1.212,31.993c1.711,13.086 7.3,22.639 16.196,26.915c5.293,2.544 11.112,3.006 17.283,1.509c6.94,-1.684 14.57,-6.132 22.122,-12.484c4.064,-3.419 8.145,-7.407 12.134,-11.696c-0.259,11.748 4.377,20.14 12.818,23.093c4.914,1.719 10.696,1.788 17.064,0.071c7.19,-1.938 15.438,-6.29 23.91,-12.182c29.668,-20.635 63.291,-60.533 63.291,-60.533c3.515,-4.181 2.974,-10.429 -1.207,-13.944c-4.181,-3.514 -10.429,-2.974 -13.943,1.207c-0,0 -31.539,37.613 -59.443,57.021c-5.394,3.752 -10.606,6.806 -15.382,8.558c-2.645,0.971 -5.015,1.712 -7.049,1.307c-0.126,-0.553 -0.311,-1.477 -0.34,-2.142c-0.076,-1.734 0.088,-3.658 0.398,-5.711c3.017,-20.028 18.951,-49.589 18.951,-49.589c2.528,-4.739 0.815,-10.631 -3.862,-13.274c-4.676,-2.644 -10.608,-1.073 -13.364,3.537c-0,0 -23.58,39.667 -46.717,59.13c-4.198,3.531 -8.314,6.376 -12.269,7.844c-2.099,0.779 -4.064,1.283 -5.821,0.439c-1.911,-0.919 -2.893,-2.913 -3.709,-5.232c-1.449,-4.12 -1.936,-9.254 -1.913,-14.884c0.041,-9.943 1.764,-21.256 4.175,-31.936c22.899,-19.385 51.506,-51.452 63.185,-74.609c4.425,-8.775 6.472,-16.622 6.109,-22.542c-0.39,-6.348 -3.05,-11.258 -7.839,-14.639c-9.485,-6.696 -20.688,-4.63 -31.521,5.653c-16.345,15.515 -33.269,52.379 -40.471,71.834c-2.373,6.408 -4.881,14.455 -7.074,23.181Zm67.093,-84.634c-0.244,0.022 -0.496,0.133 -0.751,0.238c-0.904,0.374 -1.803,0.95 -2.725,1.644c-4.734,3.566 -9.442,9.768 -14.02,16.938c-7.336,11.49 -14.067,25.458 -19.011,37.11c13.501,-14.571 25.966,-30.667 32.537,-43.696c1.839,-3.647 3.191,-6.982 3.779,-9.91c0.142,-0.707 0.183,-1.702 0.191,-2.324Z" style="fill:#cc6c6d;"/><path d="M445.527,187.949c-16.643,6.695 -33.314,16.091 -49.469,29.633c-4.185,3.509 -4.735,9.757 -1.226,13.942c3.509,4.186 9.756,4.736 13.942,1.227c14.414,-12.084 29.29,-20.465 44.14,-26.44c5.067,-2.039 7.526,-7.808 5.488,-12.875c-2.039,-5.067 -7.808,-7.526 -12.875,-5.487Z" style="fill:#cc6c6d;"/><path d="M525.708,303.349c3.6,-11.608 1.905,-22.564 -7.29,-30.16c-8.068,-6.664 -17.587,-8.028 -28.244,-4.789c-9.169,2.786 -19.534,9.563 -30.383,18.874c1.071,-2.798 1.64,-4.354 1.64,-4.354c1.874,-5.13 -0.771,-10.817 -5.901,-12.69c-5.131,-1.874 -10.817,0.77 -12.691,5.901c0,-0 -7.302,20.03 -18.587,45.244c-9.141,8.92 -18.502,17.911 -28.03,26.524c-27.481,24.841 -47.148,48.757 -54.724,64.647c-4.843,10.16 -4.905,18.358 -2.471,23.412c2.584,5.365 5.987,8.459 9.497,10.129c4.095,1.947 8.68,2.22 13.686,0.477c5.349,-1.862 11.787,-6.758 18.472,-14.21c8.184,-9.121 17.338,-22.292 26.537,-36.382c10.64,-16.299 20.713,-35.701 29.22,-53.794c5.126,9.338 14.256,15.832 28.024,13.419c2.351,-0.262 4.77,-0.779 7.232,-1.535c16.732,-4.111 36.628,-12.63 49.629,-22.652c32.133,-24.771 62.972,-47.127 91.074,-48.626c5.454,-0.29 9.646,-4.955 9.356,-10.409c-0.291,-5.454 -4.955,-9.646 -10.41,-9.355c-26.458,1.41 -55.623,18.426 -85.636,40.329Zm-127.865,70.16c-15.917,15.508 -28.144,30.019 -35.16,41.511c-2.458,4.026 -4.238,7.58 -5.126,10.601c-0.113,0.384 -0.209,0.868 -0.28,1.307c0.858,-0.515 1.864,-1.168 2.628,-1.807c0.706,-0.592 1.424,-1.24 2.156,-1.94c8.561,-8.187 18.481,-22.554 28.584,-38.029c2.436,-3.732 4.841,-7.632 7.198,-11.643Zm69.102,-38.647c0.849,-0.329 1.712,-0.699 2.585,-1.073c6.65,-2.849 13.476,-7.517 19.257,-11.821c6.373,-4.745 14.904,-14.736 17.946,-24.247c1.116,-3.491 1.84,-6.992 -0.921,-9.272c-3.888,-3.212 -8.687,-1.998 -14.067,0.527c-8.608,4.041 -18.049,11.879 -27.969,21.449c-3.713,3.581 -7.475,7.255 -11.281,10.987c0.042,1.945 0.28,4.57 1.067,7.227c0.761,2.568 2.022,5.325 4.804,6.884c0.645,0.361 1.326,0.574 2.037,0.666l0.66,-0.09c1.888,-0.332 3.858,-0.747 5.882,-1.237Z" style="fill:#cc6c6d;"/><path d="M614.761,261.741c-0.245,-0.003 -0.492,0.006 -0.741,0.025c-18.362,1.378 -34.698,9.714 -51.731,28.469c-9.788,10.776 -16.57,27.674 -16.554,41.407c0.013,11.812 4.776,21.414 14.218,26.121c9.336,4.655 20.9,4.298 32.31,0.421c14.96,-5.084 29.566,-16.091 36.864,-25.297c4.479,-5.651 7.737,-11.877 9.972,-18.151c25.544,-3.693 56.979,-16.012 73.892,-29.302c4.295,-3.375 5.042,-9.601 1.668,-13.896c-3.375,-4.295 -9.602,-5.042 -13.896,-1.667c-13.27,10.426 -36.89,20.018 -57.688,24.131c0.14,-4.166 -0.145,-8.038 -0.773,-11.408c-1.488,-7.99 -5.151,-13.587 -8.935,-16.226c-5.929,-4.135 -12.443,-5.417 -18.606,-4.627Zm-25.386,30.195c-4.116,3.121 -8.228,6.975 -12.435,11.606c-6.652,7.325 -11.423,18.744 -11.412,28.078c0.004,3.589 0.386,6.999 3.256,8.43c4.947,2.466 11.065,1.448 17.111,-0.607c11.218,-3.811 22.249,-11.949 27.722,-18.852c1.325,-1.672 2.497,-3.417 3.524,-5.207c-9.058,-1.121 -16.186,-4.219 -20.461,-8.853c-4.359,-4.726 -6.64,-9.72 -7.305,-14.595Zm27.929,-10.739c-0.58,0.157 -1.182,0.26 -1.803,0.306l-0.309,0.028c-4.846,1.39 -8.348,6.827 -3.964,11.579c1.611,1.746 4.457,2.247 7.787,2.652c1.323,0.161 2.713,0.258 4.161,0.297c0.186,-2.092 0.217,-4.102 0.115,-5.98c-0.166,-3.035 -1.452,-6.946 -1.744,-7.794c-1.351,-0.803 -2.813,-1.131 -4.243,-1.088Z" style="fill:#cc6c6d;"/><path d="M678.231,319.962c-9.352,9.371 -18.781,19.007 -28.66,27.937c-27.481,24.841 -47.148,48.757 -54.724,64.647c-4.844,10.16 -4.905,18.358 -2.471,23.412c2.584,5.365 5.987,8.459 9.497,10.129c4.094,1.947 8.679,2.22 13.686,0.477c5.348,-1.862 11.787,-6.758 18.472,-14.21c8.184,-9.121 17.338,-22.292 26.536,-36.382c10.304,-15.784 20.077,-34.478 28.406,-52.067c2.237,3.28 5.417,6.373 9.899,8.885c6.269,3.512 13.649,4.483 21.753,3.042c9.647,-1.715 20.613,-7.067 31.491,-14.637c10.699,-7.445 27.179,-27.425 29.813,-43.052c1.648,-9.776 -1.025,-18.242 -9.287,-23.904c-6.912,-4.736 -16.312,-5.833 -27.169,-2.876c-9.934,2.706 -21.457,8.928 -32.93,17.471c1.454,-3.773 2.237,-5.914 2.237,-5.914c1.873,-5.13 -0.771,-10.817 -5.901,-12.69c-5.131,-1.874 -10.818,0.77 -12.691,5.901c-0,-0 -7.032,19.288 -17.957,43.831Zm-27.039,53.547c-15.918,15.508 -28.144,30.019 -35.161,41.511c-2.458,4.026 -4.237,7.58 -5.125,10.601c-0.113,0.384 -0.21,0.868 -0.28,1.307c0.858,-0.515 1.864,-1.168 2.627,-1.807c0.706,-0.592 1.425,-1.24 2.157,-1.94c8.56,-8.187 18.481,-22.554 28.584,-38.029c2.436,-3.732 4.84,-7.632 7.198,-11.643Zm52.91,-51.277c-0.015,0.697 -0.107,1.401 -0.279,2.105c0,-0 -1.881,7.484 4.725,11.186c3.322,1.861 7.417,1.353 11.879,0.044c6.443,-1.89 13.391,-5.752 20.383,-10.618c6.655,-4.631 16.561,-15.827 20.457,-26.075c0.764,-2.011 1.3,-3.953 1.308,-5.759c0.004,-1.002 -0.228,-1.936 -1.122,-2.549c-2.727,-1.868 -6.495,-1.273 -10.778,-0.106c-10.235,2.788 -22.326,10.451 -34.013,20.383c-4.229,3.595 -8.406,7.42 -12.56,11.389Z" style="fill:#cc6c6d;"/><text x="54.504px" y="396.409px" style="font-family:'AtkinsonHyperlegible-Bold', 'Atkinson Hyperlegible';font-weight:700;font-size:44.211px;fill:#cc6c6d;">sunny h<tspan x="215.874px 241.206px 253.895px " y="396.409px 396.409px 396.409px ">oli</tspan>day</text></g><g><path d="M34.283,279.356c7.679,0 13.629,5.905 13.277,13.177c-0.351,7.273 -6.871,13.177 -14.55,13.177c-7.68,0 -13.629,-5.904 -13.278,-13.177c0.352,-7.272 6.872,-13.177 14.551,-13.177Z" style="fill:#cc6c6d;"/><path d="M28.654,270.616c-0.938,-2.981 -4.116,-4.627 -7.091,-3.673c-2.976,0.954 -4.63,4.149 -3.692,7.129l3.47,11.026c0.938,2.98 4.116,4.626 7.091,3.672c2.976,-0.954 4.63,-4.148 3.692,-7.129l-3.47,-11.025Z" style="fill:#cc6c6d;"/><path d="M40.879,270.317c1.159,-2.816 4.44,-4.328 7.324,-3.374c2.883,0.954 4.284,4.015 3.125,6.831l-4.781,11.622c-1.158,2.816 -4.44,4.328 -7.323,3.374c-2.884,-0.954 -4.284,-4.014 -3.126,-6.83l4.781,-11.623Z" style="fill:#cc6c6d;"/></g></g></svg>