<?xml version="1.0" encoding="UTF-8" standalone="no"?><!DOCTYPE svg PUBLIC "-//W3C//DTD SVG 1.1//EN" "http://www.w3.org/Graphics/SVG/1.1/DTD/svg11.dtd"><svg width="100%" height="100%" viewBox="0 0 800 600" version="1.1" xmlns="http://www.w3.org/2000/svg" xmlns:xlink="http://www.w3.org/1999/xlink" xml:space="preserve" xmlns:serif="http://www.serif.com/" style="fill-rule:evenodd;clip-rule:evenodd;stroke-linejoin:round;stroke-miterlimit:2;"><g id="logo"><g><path d="M2.943,345.989l-0.799,1.053c-3.488,4.62 -2.632,11.182 1.925,14.752c4.555,3.571 11.131,2.835 14.785,-1.655l0.234,-0.308l0.004,0.003c19.104,-25.308 40.818,-52.581 61.79,-67.209c10.344,-7.214 20.155,-11.626 29.196,-8.272c-0.299,1.481 -0.91,4.211 -1.711,6.228c-2.235,5.64 -5.685,11.987 -9.044,18.369c-6.085,11.56 -11.6,23.339 -12.232,32.199c-0.708,9.922 2.877,17.58 12.587,21.965c6.205,2.802 14.403,2.036 23.696,-4.551c12.758,-9.042 30.464,-31.109 51.835,-57.969c3.648,-4.586 2.887,-11.271 -1.698,-14.919c-4.585,-3.649 -12.449,-0.959 -16.098,3.626c-17.155,21.562 -30.413,38.07 -41.729,48.215c-2.43,2.178 -5.719,4.221 -7.482,5.253c0.042,-0.165 0.087,-0.337 0.105,-0.505c0.18,-1.657 0.68,-3.451 1.336,-5.356c2.996,-8.688 9.051,-18.868 13.764,-28.236c4.844,-9.632 8.17,-18.724 8.108,-25.411c-0.073,-7.971 -3.416,-14.025 -11.106,-17.594c-15.305,-7.104 -32.653,-3.301 -50.299,8.603c6.416,-13.033 11.935,-25.918 15.41,-37.337c3.523,-11.573 4.949,-21.864 3.882,-29.749c-1.534,-11.339 -7.411,-18.954 -18.176,-21.954c-15.197,-4.236 -29.489,1.971 -40.892,11.866c-14.556,12.631 -24.042,30.838 -24.042,30.838c-2.701,5.2 -0.672,11.615 4.528,14.317c5.2,2.701 11.614,0.672 14.315,-4.528c0,0 7.522,-14.529 19.116,-24.59c6.036,-5.237 13.229,-9.691 21.273,-7.449c2.9,0.809 3.008,3.771 3.009,7.178c0.001,5.097 -1.284,11.179 -3.327,17.888c-12.981,42.65 -56.265,106.994 -62.263,115.239Z" style="fill:#44d3ce;"/><path d="M244.387,285.775c-0.142,-1.821 -0.37,-3.552 -0.672,-5.177c-1.598,-8.571 -5.527,-14.576 -9.587,-17.407c-6.361,-4.436 -13.349,-5.811 -19.961,-4.964c-0.262,-0.003 -0.527,0.007 -0.794,0.027c-19.7,1.478 -37.224,10.421 -55.498,30.542c-10.501,11.56 -17.777,29.689 -17.76,44.422c0.014,12.672 5.124,22.973 15.254,28.023c10.015,4.994 22.422,4.611 34.663,0.451c16.048,-5.454 31.718,-17.262 39.547,-27.138c5.907,-7.451 9.834,-15.836 12.178,-24.099c17.305,-6.953 36.201,-20.305 49.991,-34.575c4.071,-4.214 3.956,-10.941 -0.258,-15.013c-4.214,-4.072 -10.94,-3.956 -15.013,0.258c-9.024,9.339 -20.566,18.333 -32.09,24.65Zm-57.454,4.846c-4.416,3.348 -8.827,7.483 -13.339,12.451c-7.138,7.858 -12.256,20.109 -12.245,30.122c0.005,3.851 0.416,7.509 3.494,9.044c5.307,2.646 11.871,1.554 18.358,-0.651c12.033,-4.089 23.868,-12.819 29.739,-20.225c1.469,-1.853 2.761,-3.788 3.89,-5.775c-8.95,-0.286 -16.576,-3.365 -22.059,-9.309c-4.678,-5.07 -7.125,-10.427 -7.838,-15.657Zm29.963,-11.521c-0.622,0.168 -1.269,0.279 -1.934,0.328l-0.332,0.03c-5.199,1.491 -8.956,7.324 -4.253,12.422c1.425,1.544 3.389,2.206 5.585,2.454c2.265,0.255 4.722,0.086 7.317,-0.392c0.123,-1.848 0.132,-3.63 0.039,-5.314c-0.178,-3.256 -1.557,-7.451 -1.869,-8.361c-1.451,-0.862 -3.019,-1.213 -4.553,-1.167Z" style="fill:#44d3ce;"/><path d="M261.471,274.397c-2.411,1.886 -4.722,3.586 -6.903,5.074c-4.84,3.302 -6.089,9.914 -2.787,14.753c1.243,1.822 2.954,3.134 4.862,3.887c-1.861,12.27 -2.602,24.371 -1.3,34.323c1.836,14.038 7.832,24.287 17.375,28.874c5.679,2.73 11.921,3.225 18.542,1.619c7.445,-1.806 15.631,-6.578 23.733,-13.393c4.359,-3.668 8.738,-7.946 13.017,-12.547c-0.278,12.603 4.696,21.606 13.751,24.774c5.272,1.844 11.475,1.918 18.307,0.076c7.713,-2.079 16.562,-6.748 25.651,-13.069c31.828,-22.137 67.899,-64.94 67.899,-64.94c3.771,-4.486 3.191,-11.189 -1.294,-14.96c-4.486,-3.77 -11.189,-3.19 -14.959,1.295c0,0 -33.835,40.352 -63.771,61.173c-5.787,4.025 -11.378,7.302 -16.502,9.181c-2.838,1.042 -5.38,1.837 -7.562,1.402c-0.135,-0.593 -0.334,-1.584 -0.365,-2.298c-0.082,-1.86 0.094,-3.924 0.427,-6.126c3.237,-21.487 20.331,-53.2 20.331,-53.2c2.712,-5.084 0.874,-11.405 -4.143,-14.241c-5.017,-2.836 -11.381,-1.151 -14.337,3.795c-0,-0 -25.297,42.555 -50.119,63.435c-4.504,3.788 -8.92,6.841 -13.163,8.416c-2.251,0.835 -4.359,1.376 -6.244,0.47c-2.051,-0.985 -3.104,-3.125 -3.979,-5.612c-1.555,-4.42 -2.077,-9.928 -2.053,-15.968c0.044,-10.667 1.893,-22.804 4.479,-34.262c24.567,-20.796 55.257,-55.198 67.786,-80.041c4.747,-9.414 6.943,-17.833 6.554,-24.184c-0.419,-6.81 -3.272,-12.077 -8.41,-15.705c-10.176,-7.183 -22.194,-4.967 -33.816,6.065c-17.535,16.645 -35.692,56.193 -43.418,77.065c-2.546,6.874 -5.236,15.507 -7.589,24.869Zm71.978,-90.797c-0.261,0.024 -0.532,0.143 -0.805,0.255c-0.97,0.402 -1.935,1.019 -2.924,1.764c-5.079,3.826 -10.129,10.479 -15.041,18.171c-7.87,12.327 -15.091,27.312 -20.395,39.812c14.484,-15.632 27.857,-32.9 34.906,-46.877c1.973,-3.913 3.424,-7.491 4.054,-10.632c0.153,-0.758 0.197,-1.826 0.205,-2.493Z" style="fill:#44d3ce;"/><path d="M438.607,179.062c-17.855,7.182 -35.74,17.263 -53.072,31.791c-4.489,3.764 -5.079,10.467 -1.315,14.957c3.765,4.491 10.467,5.081 14.957,1.316c15.464,-12.964 31.423,-21.955 47.354,-28.365c5.436,-2.187 8.074,-8.377 5.888,-13.812c-2.187,-5.436 -8.377,-8.074 -13.812,-5.887Z" style="fill:#44d3ce;"/><path d="M524.626,302.865c3.862,-12.454 2.044,-24.207 -7.821,-32.356c-8.655,-7.15 -18.868,-8.613 -30.301,-5.138c-9.836,2.989 -20.956,10.259 -32.595,20.248c1.149,-3.001 1.76,-4.671 1.76,-4.671c2.01,-5.503 -0.828,-11.604 -6.331,-13.614c-5.505,-2.01 -11.605,0.826 -13.615,6.331c-0,-0 -7.834,21.488 -19.941,48.538c-9.806,9.57 -19.849,19.215 -30.071,28.456c-29.482,26.649 -50.581,52.307 -58.708,69.354c-5.196,10.9 -5.262,19.695 -2.651,25.117c2.772,5.755 6.423,9.074 10.188,10.866c4.393,2.089 9.312,2.382 14.683,0.512c5.738,-1.998 12.645,-7.25 19.817,-15.245c8.78,-9.785 18.6,-23.915 28.469,-39.031c11.415,-17.486 22.221,-38.301 31.348,-57.711c5.499,10.018 15.294,16.985 30.064,14.396c2.523,-0.281 5.118,-0.836 7.759,-1.647c17.95,-4.41 39.295,-13.549 53.243,-24.301c34.472,-26.575 67.557,-50.559 97.705,-52.167c5.851,-0.311 10.348,-5.315 10.037,-11.167c-0.312,-5.851 -5.315,-10.348 -11.168,-10.036c-28.384,1.513 -59.673,19.768 -91.871,43.266Zm-137.176,75.268c-17.076,16.638 -30.193,32.205 -37.72,44.534c-2.637,4.319 -4.546,8.132 -5.499,11.373c-0.121,0.412 -0.224,0.931 -0.3,1.402c0.92,-0.552 1.999,-1.253 2.819,-1.939c0.757,-0.635 1.528,-1.33 2.313,-2.081c9.184,-8.783 19.827,-24.196 30.665,-40.798c2.614,-4.004 5.194,-8.188 7.722,-12.491Zm74.134,-41.461c0.911,-0.353 1.837,-0.75 2.773,-1.151c7.134,-3.056 14.458,-8.064 20.659,-12.682c6.837,-5.09 15.99,-15.809 19.253,-26.012c1.197,-3.745 1.974,-7.501 -0.988,-9.947c-4.171,-3.446 -9.319,-2.144 -15.091,0.565c-9.235,4.335 -19.363,12.744 -30.006,23.011c-3.983,3.842 -8.019,7.783 -12.102,11.787c0.045,2.087 0.3,4.903 1.145,7.753c0.816,2.755 2.169,5.713 5.153,7.385c0.692,0.388 1.423,0.616 2.186,0.715l0.708,-0.097c2.025,-0.356 4.139,-0.801 6.31,-1.327Z" style="fill:#44d3ce;"/><path d="M619.09,259.3c-0.263,-0.003 -0.528,0.006 -0.795,0.027c-19.699,1.478 -37.224,10.421 -55.497,30.542c-10.501,11.56 -17.777,29.689 -17.76,44.422c0.014,12.672 5.124,22.973 15.254,28.023c10.015,4.994 22.421,4.611 34.662,0.451c16.049,-5.454 31.719,-17.262 39.548,-27.139c4.806,-6.062 8.301,-12.741 10.698,-19.472c27.404,-3.962 61.128,-17.178 79.273,-31.436c4.608,-3.621 5.409,-10.3 1.789,-14.908c-3.62,-4.607 -10.301,-5.409 -14.908,-1.788c-14.236,11.185 -39.576,21.475 -61.888,25.888c0.15,-4.469 -0.156,-8.623 -0.829,-12.239c-1.597,-8.572 -5.526,-14.576 -9.586,-17.407c-6.361,-4.436 -13.349,-5.812 -19.961,-4.964Zm-27.234,32.394c-4.416,3.348 -8.827,7.482 -13.341,12.451c-7.136,7.858 -12.254,20.108 -12.243,30.122c0.005,3.85 0.415,7.509 3.494,9.044c5.307,2.645 11.87,1.553 18.356,-0.651c12.035,-4.089 23.87,-12.819 29.741,-20.225c1.422,-1.794 2.679,-3.666 3.781,-5.586c-9.718,-1.203 -17.365,-4.526 -21.951,-9.498c-4.677,-5.07 -7.124,-10.428 -7.837,-15.657Zm29.962,-11.521c-0.622,0.018 -2.265,0.358 -2.265,0.358c-5.199,1.491 -8.956,7.324 -4.253,12.422c1.728,1.873 4.782,2.411 8.354,2.845c1.419,0.173 2.911,0.277 4.464,0.319c0.2,-2.245 0.233,-4.401 0.123,-6.416c-0.178,-3.256 -1.557,-7.451 -1.871,-8.361c-1.449,-0.862 -3.017,-1.214 -4.552,-1.167Z" style="fill:#44d3ce;"/><path d="M688.255,320.687c-10.033,10.054 -20.149,20.391 -30.747,29.972c-29.482,26.649 -50.581,52.307 -58.709,69.354c-5.197,10.9 -5.262,19.695 -2.651,25.117c2.772,5.755 6.423,9.074 10.189,10.866c4.392,2.089 9.311,2.382 14.682,0.512c5.738,-1.998 12.646,-7.25 19.817,-15.245c8.78,-9.785 18.601,-23.915 28.468,-39.031c11.055,-16.933 21.539,-36.988 30.475,-55.858c2.4,3.519 5.811,6.837 10.62,9.532c6.725,3.767 14.642,4.809 23.337,3.263c10.349,-1.84 22.113,-7.581 33.784,-15.703c11.478,-7.987 29.158,-29.421 31.983,-46.186c1.768,-10.488 -1.099,-19.571 -9.963,-25.645c-7.415,-5.081 -17.5,-6.258 -29.147,-3.085c-10.658,2.903 -23.02,9.578 -35.328,18.743c1.56,-4.048 2.4,-6.345 2.4,-6.345c2.009,-5.503 -0.827,-11.604 -6.331,-13.614c-5.504,-2.01 -11.605,0.826 -13.615,6.331c0,-0 -7.544,20.692 -19.264,47.022Zm-29.008,57.446c-17.077,16.638 -30.193,32.205 -37.721,44.534c-2.637,4.319 -4.546,8.132 -5.499,11.373c-0.121,0.412 -0.225,0.931 -0.3,1.402c0.921,-0.552 2,-1.253 2.818,-1.939c0.758,-0.635 1.529,-1.33 2.314,-2.081c9.184,-8.783 19.827,-24.196 30.666,-40.798c2.613,-4.004 5.192,-8.188 7.722,-12.491Zm56.762,-55.01c-0.016,0.747 -0.114,1.503 -0.299,2.258c0,-0 -2.018,8.029 5.069,12c3.564,1.997 7.957,1.452 12.744,0.048c6.912,-2.028 14.366,-6.171 21.867,-11.391c7.14,-4.969 17.767,-16.98 21.947,-27.974c0.819,-2.158 1.395,-4.241 1.403,-6.178c0.004,-1.075 -0.245,-2.077 -1.204,-2.735c-2.925,-2.004 -6.968,-1.366 -11.562,-0.114c-10.981,2.991 -23.952,11.212 -36.49,21.867c-4.537,3.857 -9.018,7.961 -13.475,12.219Z" style="fill:#44d3ce;"/></g></g></svg>